<svg width="98" height="30" viewBox="0 0 98 30" fill="none" xmlns="http://www.w3.org/2000/svg">
<path d="M40.3506 29.8709C43.7295 29.8709 45.4872 27.9205 46.2911 26.1745H46.5363V29.5299H52.2589V1.5959H46.4681V12.0984H46.2911C45.5144 10.3935 43.8385 8.30655 40.3369 8.30655C35.7454 8.30655 31.8623 11.8803 31.8623 19.082C31.8623 26.0928 35.5818 29.8709 40.3506 29.8709ZM42.1901 25.247C39.3424 25.247 37.789 22.71 37.789 19.0546C37.789 15.4265 39.315 12.9305 42.1901 12.9305C45.0104 12.9305 46.5909 15.3173 46.5909 19.0546C46.5909 22.7918 44.983 25.247 42.1901 25.247ZM56.2637 29.5299H62.0679V8.57926H56.2637V29.5299ZM59.1793 5.87881C60.9097 5.87881 62.3266 4.55561 62.3266 2.93255C62.3266 1.3232 60.9097 0 59.1793 0C57.4627 0 56.0455 1.3232 56.0455 2.93255C56.0455 4.55561 57.4627 5.87881 59.1793 5.87881ZM75.4873 29.9389C80.6647 29.9389 84.1529 27.4157 84.9704 23.5284L79.602 23.1737C79.0163 24.7696 77.5175 25.6017 75.5827 25.6017C72.6807 25.6017 70.8412 23.6785 70.8412 20.555V20.5413H85.0929V18.9454C85.0929 11.8257 80.7875 8.30655 75.2557 8.30655C69.0974 8.30655 65.1052 12.6849 65.1052 19.15C65.1052 25.7926 69.0429 29.9389 75.4873 29.9389ZM70.8412 16.9404C70.964 14.5535 72.776 12.6441 75.3511 12.6441C77.8718 12.6441 79.6157 14.4443 79.6294 16.9404H70.8412ZM93.9175 1.5959H88.1133V29.5299H93.9175V1.5959Z" fill="white"/>
<path d="M96.9449 29.6287C97.5277 29.6287 97.9998 29.1568 97.9998 28.574C97.9998 27.9911 97.5277 27.519 96.9449 27.519C96.3621 27.519 95.8901 27.9911 95.8901 28.574C95.8901 29.1568 96.3621 29.6287 96.9449 29.6287ZM96.9449 29.4322C96.4702 29.4322 96.0865 29.0485 96.0865 28.574C96.0865 28.0992 96.4702 27.7156 96.9449 27.7156C97.4196 27.7156 97.8033 28.0992 97.8033 28.574C97.8033 29.0485 97.4196 29.4322 96.9449 29.4322ZM96.5876 29.0485H96.7577V28.6991H97.0254L97.2073 29.0485H97.3972L97.1902 28.6622C97.2851 28.6122 97.3576 28.5133 97.3576 28.3801C97.3576 28.1823 97.2007 28.0754 97.0544 28.0754H96.5876V29.0485ZM96.7577 28.566V28.2087H97.0029C97.0874 28.2087 97.1731 28.2574 97.1731 28.3801C97.1731 28.5001 97.0886 28.566 96.999 28.566H96.7577Z" fill="white"/>
<path fill-rule="evenodd" clip-rule="evenodd" d="M16.4846 1.63306H10.769V10.8275L2.85781 6.25998L0 11.2098L7.93524 15.7913L0.0181971 20.3622L2.876 25.312L10.769 20.755V29.9389H16.4846V20.7272L24.5136 25.3628L27.3714 20.4129L19.3665 15.7913L27.3896 11.1591L24.5318 6.20922L16.4846 10.8553V1.63306Z" fill="url(#paint0_linear_5_1741)"/>
<defs>
<linearGradient id="paint0_linear_5_1741" x1="13.6948" y1="2" x2="13.6948" y2="30" gradientUnits="userSpaceOnUse">
<stop stop-color="#363BC4"/>
<stop offset="1" stop-color="#00FF9B"/>
</linearGradient>
</defs>
</svg>
